<?xml version="1.0" encoding="UTF-8"?>
<svg width="38px" height="36px" viewBox="0 0 38 36" version="1.1" xmlns="http://www.w3.org/2000/svg" xmlns:xlink="http://www.w3.org/1999/xlink">
    <!-- Generator: Sketch 52.5 (67469) - http://www.bohemiancoding.com/sketch -->
    <title>星形</title>
    <desc>Created with Sketch.</desc>
    <g id="K线" stroke="none" stroke-width="1" fill="none" fill-rule="evenodd">
        <g id="k线-深度图" transform="translate(-557.000000, -141.000000)" stroke="#000000" stroke-width="4">
            <g id="编组-3" transform="translate(30.000000, 120.000000)">
                <g id="search" transform="translate(508.000000, 0.000000)">
                    <path d="M47.1123235,52.8602334 L45.6434324,44.0569519 C45.5091357,43.2520922 45.7760837,42.432342 46.3585674,41.8608987 L52.734789,35.6055307 L43.8763604,34.2768226 C43.0725068,34.1562496 42.3774549,33.6523933 42.0128328,32.9259161 L38,24.9307022 L33.9871672,32.9259161 C33.6225451,33.6523933 32.9274932,34.1562496 32.1236396,34.2768226 L23.265211,35.6055307 L29.6414326,41.8608987 C30.2239163,42.432342 30.4908643,43.2520922 30.3565676,44.0569519 L28.8876765,52.8602334 L36.6219145,48.8604396 C37.4862661,48.4134366 38.5137339,48.4134366 39.3780855,48.8604396 L47.1123235,52.8602334 Z" id="星形"></path>
                </g>
            </g>
        </g>
    </g>
</svg>